<?xml version="1.0" standalone="no"?>
<!DOCTYPE svg PUBLIC "-//W3C//DTD SVG 20010904//EN"
 "http://www.w3.org/TR/2001/REC-SVG-20010904/DTD/svg10.dtd">
<svg version="1.0" xmlns="http://www.w3.org/2000/svg"
 width="1920.000000pt" height="1080.000000pt" viewBox="0 0 1920.000000 1080.000000"
 preserveAspectRatio="xMidYMid meet">

<g transform="translate(0.000000,1080.000000) scale(0.100000,-0.100000)"
fill="#000000" stroke="none">
<path d="M0 5400 l0 -5400 9600 0 9600 0 0 5400 0 5400 -9600 0 -9600 0 0
-5400z m6905 1370 c0 -292 -3 -522 -7 -513 -69 187 -110 272 -179 372 -144
209 -349 379 -575 476 -103 44 -243 85 -319 93 -58 5 -59 6 -25 14 38 9 151 3
269 -13 41 -6 156 -35 255 -65 158 -47 191 -54 266 -54 99 0 145 17 210 76 23
21 56 62 72 91 17 29 31 53 31 53 1 0 2 -239 2 -530z m-1096 263 c33 -6 31 -7
-49 -34 -194 -66 -338 -155 -477 -294 -221 -222 -343 -514 -343 -821 0 -458
254 -864 665 -1064 90 -44 188 -80 219 -80 21 -1 21 -1 1 -12 -12 -7 -81 -14
-170 -16 -218 -6 -362 23 -550 112 -123 58 -213 123 -321 230 -452 452 -456
1186 -9 1641 191 194 413 303 710 349 37 6 278 -2 324 -11z m2603 -840 c28 -5
28 -6 28 -84 0 -58 -3 -79 -13 -79 -7 0 -17 19 -23 42 -8 36 -16 47 -54 68
-39 21 -57 25 -130 24 -145 -1 -225 -59 -251 -182 -23 -114 11 -231 90 -305
65 -61 120 -80 220 -76 94 5 130 25 146 83 15 51 31 45 27 -10 -7 -99 -25
-113 -167 -121 -112 -7 -199 13 -271 62 -92 64 -129 139 -129 265 0 123 42
210 129 269 36 24 62 34 151 55 23 6 204 -2 247 -11z m763 -28 c134 -65 193
-232 140 -400 -15 -48 -31 -72 -79 -120 -77 -77 -143 -100 -263 -93 -123 7
-209 62 -260 166 -25 50 -28 68 -28 152 0 82 4 103 26 151 63 133 188 196 352
178 31 -4 82 -19 112 -34z m2188 25 c11 -10 4 -100 -8 -101 -5 0 -11 9 -13 21
-6 34 -49 54 -114 55 -55 0 -62 -3 -89 -33 -54 -60 -38 -95 91 -197 146 -114
181 -178 146 -269 -20 -52 -47 -77 -104 -99 -47 -19 -166 -23 -206 -7 -24 9
-26 14 -26 75 0 37 4 65 10 65 6 0 10 -11 10 -24 0 -88 167 -124 227 -49 27
33 30 81 8 123 -8 16 -53 60 -101 99 -131 109 -161 153 -149 221 12 65 62 111
140 131 34 9 166 1 178 -11z m1352 -25 c104 -51 160 -148 159 -280 0 -104 -26
-167 -99 -240 -70 -71 -131 -95 -238 -95 -129 0 -232 63 -288 175 -20 42 -24
64 -24 145 0 82 4 103 26 151 63 133 188 196 352 178 31 -4 82 -19 112 -34z
m-1935 21 c0 -37 -14 -106 -21 -106 -5 0 -9 9 -9 19 0 40 -26 51 -121 51 l-89
0 0 -115 0 -115 99 0 c56 0 103 4 106 10 16 25 23 5 18 -47 -5 -56 -23 -99
-23 -57 0 36 -20 44 -112 44 l-88 0 0 -112 c1 -148 3 -152 114 -156 75 -4 86
-2 105 17 12 12 21 30 21 41 0 11 5 20 11 20 13 0 5 -98 -9 -112 -5 -5 -94 -7
-198 -6 -169 3 -191 6 -139 23 13 4 15 42 13 286 -3 301 0 284 -53 306 -12 5
54 10 165 13 102 3 191 7 198 8 6 1 12 -4 12 -12z m1300 -40 c6 -27 8 -51 5
-55 -3 -3 -17 8 -29 24 -23 28 -29 30 -110 34 l-86 3 0 -270 c0 -149 3 -277 6
-286 3 -9 14 -16 24 -16 11 0 22 -4 25 -10 4 -6 -30 -10 -94 -10 -56 0 -101 4
-101 9 0 5 10 11 22 13 14 2 25 13 29 28 4 14 7 141 8 283 l1 257 -69 0 c-80
0 -128 -14 -136 -41 -4 -10 -11 -19 -16 -19 -12 0 -11 26 1 70 l10 35 249 0
250 0 11 -49z m1471 43 l69 -12 0 -36 c0 -53 -11 -111 -21 -111 -5 0 -9 11 -9
24 0 107 -244 152 -365 68 -22 -15 -51 -48 -65 -72 -22 -39 -25 -57 -25 -140
0 -107 17 -157 75 -224 61 -69 175 -109 264 -92 57 11 66 27 65 114 -2 115 -8
135 -47 148 -51 16 -26 24 80 24 93 0 126 -11 74 -24 -31 -8 -36 -29 -36 -159
l0 -108 -37 -16 c-56 -24 -205 -29 -282 -9 -149 38 -241 157 -241 311 0 150
74 262 203 306 61 22 194 25 298 8z m557 -66 c17 -43 52 -132 77 -198 97 -250
110 -281 133 -312 15 -22 31 -33 47 -33 13 0 27 -4 30 -10 4 -6 -27 -10 -85
-10 -79 0 -91 2 -86 15 3 9 -12 62 -33 118 l-39 102 -94 3 -95 3 -31 -102
c-17 -56 -29 -106 -26 -110 3 -5 14 -9 25 -9 10 0 19 -4 19 -10 0 -6 -38 -10
-95 -10 -57 0 -95 4 -95 10 0 6 11 10 25 10 13 0 32 9 42 19 10 11 65 150 123
310 58 160 110 291 116 291 7 0 25 -35 42 -77z m-4273 -185 l230 -252 3 216
c3 243 -2 268 -48 268 -16 0 -30 5 -30 10 0 6 38 10 95 10 57 0 95 -4 95 -10
0 -5 -9 -10 -20 -10 -11 0 -23 -6 -26 -14 -3 -7 -6 -144 -7 -304 -1 -160 -6
-294 -10 -298 -5 -5 -43 27 -85 71 -111 115 -355 375 -384 410 l-26 29 5 -204
c3 -113 9 -222 14 -242 9 -33 14 -38 39 -38 17 0 30 -4 30 -10 0 -6 -40 -10
-100 -10 -60 0 -100 4 -100 10 0 6 11 10 24 10 14 0 27 4 31 10 7 12 8 558 0
570 -4 6 -15 10 -25 10 -10 0 -22 5 -25 10 -4 6 13 10 42 10 l49 0 229 -252z
m-2930 -951 l0 -533 -33 56 c-44 72 -73 102 -135 136 -47 26 -61 29 -147 29
-86 0 -111 -5 -265 -52 -197 -61 -327 -83 -475 -82 l-105 1 79 14 c491 82 894
424 1058 897 12 37 23 67 23 67 0 0 0 -240 0 -533z m1185 213 c20 -20 27 -50
12 -50 -5 0 -19 11 -32 25 -33 36 -83 34 -121 -4 -27 -27 -29 -35 -29 -101 0
-66 2 -74 29 -101 39 -38 92 -40 125 -4 33 35 51 33 31 -5 -17 -32 -79 -56
-118 -44 -68 20 -99 68 -98 155 0 103 40 149 128 149 40 0 58 -5 73 -20z
m1590 -120 l0 -140 75 0 c43 0 75 -4 75 -10 0 -6 -37 -10 -90 -10 l-90 0 0
150 c0 127 2 150 15 150 13 0 15 -22 15 -140z m238 122 c2 -7 -3 -12 -12 -12
-9 0 -16 7 -16 16 0 17 22 14 28 -4z m172 9 c0 -5 -10 -11 -22 -13 -18 -2 -24
-11 -26 -35 -3 -28 0 -33 17 -33 12 0 21 -7 21 -15 0 -8 -9 -15 -20 -15 -19 0
-20 -7 -20 -90 0 -73 -3 -90 -15 -90 -12 0 -15 17 -15 90 0 83 -1 90 -20 90
-11 0 -20 7 -20 15 0 8 9 15 20 15 15 0 20 7 20 26 0 42 18 64 50 64 17 0 30
-4 30 -9z m1010 -141 c0 -84 -4 -150 -9 -150 -5 0 -11 5 -13 10 -2 7 -15 5
-35 -5 -42 -21 -80 -10 -104 29 -33 54 -17 153 26 170 30 11 78 6 97 -11 17
-15 18 -14 18 45 0 35 4 62 10 62 6 0 10 -57 10 -150z m212 13 l3 -138 73 -3
c101 -4 91 -22 -13 -22 l-85 0 0 150 c0 192 18 203 22 13z m1078 122 c0 -8 -7
-15 -15 -15 -8 0 -15 7 -15 15 0 8 7 15 15 15 8 0 15 -7 15 -15z m-2980 -50
c0 -20 5 -25 26 -25 31 0 28 -24 -5 -28 -21 -3 -22 -8 -19 -80 3 -72 5 -77 26
-80 33 -5 21 -27 -13 -25 -15 1 -30 5 -34 8 -3 4 -8 44 -9 90 -3 72 -7 84 -23
88 -25 7 -24 27 1 27 13 0 20 7 20 18 0 10 3 22 7 25 13 14 23 6 23 -18z
m-1095 -31 c43 -17 59 -116 26 -170 -34 -55 -120 -52 -154 5 -44 74 -2 171 73
171 21 0 46 -3 55 -6z m138 -6 c4 -10 7 -10 18 0 23 21 86 15 103 -10 18 -26
23 -188 6 -188 -6 0 -10 31 -10 73 0 81 -16 117 -54 117 -47 0 -60 -22 -64
-109 -6 -118 -22 -99 -22 24 0 93 9 130 23 93z m237 -5 c0 -15 2 -15 19 1 29
26 92 18 108 -14 17 -34 18 -183 1 -177 -9 2 -14 29 -15 82 -1 63 -5 81 -19
92 -25 19 -51 16 -74 -7 -16 -16 -20 -33 -20 -95 0 -60 -3 -75 -15 -75 -12 0
-15 18 -15 105 0 87 3 105 15 105 8 0 15 -7 15 -17z m361 -13 c9 -14 20 -37
23 -52 l6 -28 -80 0 c-70 0 -80 -2 -80 -18 0 -62 81 -85 118 -35 24 33 40 24
24 -11 -16 -35 -79 -53 -118 -35 -59 29 -74 124 -28 179 24 27 32 31 72 28 35
-2 49 -9 63 -28z m227 14 c21 -15 31 -54 13 -54 -5 0 -16 11 -25 25 -18 28
-52 33 -80 12 -26 -19 -33 -99 -12 -132 21 -32 70 -35 88 -5 15 23 38 27 38 7
0 -40 -73 -66 -118 -43 -87 45 -58 206 38 206 19 0 46 -7 58 -16z m632 -89 c0
-63 -4 -105 -10 -105 -6 0 -10 42 -10 105 0 63 4 105 10 105 6 0 10 -42 10
-105z m371 75 c9 -14 20 -37 23 -52 l6 -27 -82 -3 c-77 -3 -83 -5 -80 -23 10
-59 85 -76 120 -28 24 33 41 24 22 -12 -16 -29 -67 -49 -105 -39 -55 14 -83
110 -50 174 18 35 28 39 84 37 34 -2 48 -8 62 -27z m320 20 c17 -9 19 -22 19
-105 0 -57 -4 -95 -10 -95 -5 0 -10 4 -10 9 0 5 -13 3 -29 -5 -36 -18 -76 -10
-96 19 -35 49 -3 93 75 103 37 5 50 11 50 23 0 40 -63 56 -94 25 -24 -23 -39
-13 -21 14 12 16 26 22 56 22 22 0 49 -5 60 -10z m119 -7 c0 -15 1 -15 18 0
10 10 34 17 52 17 58 0 70 -21 70 -122 0 -52 -4 -88 -10 -88 -6 0 -10 31 -10
73 0 81 -16 117 -54 117 -47 0 -60 -22 -64 -109 -2 -45 -8 -81 -12 -81 -9 0
-19 198 -11 206 10 9 21 3 21 -13z m938 -6 c12 -13 25 -37 28 -55 l7 -32 -82
0 c-71 0 -81 -2 -81 -18 0 -62 81 -85 118 -35 23 31 38 27 27 -7 -9 -29 -65
-52 -105 -43 -69 13 -93 131 -40 188 32 34 97 35 128 2z m226 1 c22 -32 23
-188 1 -188 -8 0 -15 4 -15 9 0 5 -13 3 -30 -5 -51 -26 -100 -1 -100 51 0 42
25 63 83 71 35 5 47 11 47 23 0 43 -59 55 -97 19 -19 -17 -23 -19 -23 -5 0 48
104 68 134 25z m116 10 c0 -9 3 -9 12 0 15 15 58 16 58 2 0 -5 -9 -10 -19 -10
-39 0 -51 -26 -51 -111 0 -64 -3 -79 -15 -79 -12 0 -15 18 -15 105 0 87 3 105
15 105 8 0 15 -5 15 -12z m150 -5 c0 -15 1 -15 18 0 25 23 78 21 102 -3 17
-17 20 -33 20 -105 0 -69 -3 -85 -15 -85 -12 0 -15 16 -15 85 0 73 -3 86 -19
95 -60 32 -91 -4 -91 -107 0 -58 -3 -73 -15 -73 -12 0 -15 18 -15 105 0 87 3
105 15 105 8 0 15 -7 15 -17z m240 -88 c0 -87 -3 -105 -15 -105 -12 0 -15 18
-15 105 0 87 3 105 15 105 12 0 15 -18 15 -105z m92 94 c3 -9 9 -9 25 0 34 18
78 13 99 -10 26 -29 35 -189 10 -189 -13 0 -16 14 -16 85 0 73 -3 86 -19 95
-28 14 -52 12 -73 -7 -14 -13 -18 -31 -18 -95 0 -63 -3 -78 -15 -78 -12 0 -15
18 -15 105 0 58 4 105 9 105 5 0 11 -5 13 -11z m338 1 c13 -7 21 -7 25 0 3 5
11 10 16 10 7 0 9 -45 7 -126 -3 -118 -4 -127 -27 -145 -42 -34 -141 -16 -141
27 0 20 13 18 33 -6 35 -41 107 -13 107 42 0 29 -1 30 -18 15 -29 -26 -79 -21
-107 9 -33 36 -35 118 -4 158 22 28 73 36 109 16z"/>
<path d="M8917 6155 c-62 -23 -94 -52 -121 -108 -70 -146 -24 -346 97 -421 94
-58 221 -44 287 30 51 58 63 98 63 209 0 107 -12 149 -60 212 -58 76 -179 111
-266 78z"/>
<path d="M12465 6157 c-93 -38 -140 -98 -157 -201 -18 -108 17 -229 85 -298
92 -92 253 -90 331 3 49 58 60 95 60 204 0 107 -12 149 -60 212 -55 72 -182
112 -259 80z"/>
<path d="M14012 5962 c-18 -54 -32 -103 -32 -110 0 -8 23 -12 74 -12 l75 0
-36 103 c-19 56 -38 105 -42 109 -4 4 -21 -36 -39 -90z"/>
<path d="M10966 5088 c-9 -12 -16 -41 -16 -63 0 -52 23 -85 59 -85 40 0 66 33
66 85 0 28 -7 50 -19 64 -25 28 -70 27 -90 -1z"/>
<path d="M8234 5102 c-35 -23 -45 -102 -18 -140 20 -29 74 -30 100 -1 29 32
26 105 -5 130 -24 19 -57 24 -77 11z"/>
<path d="M8940 5090 c-38 -38 -27 -50 46 -50 63 0 65 1 59 23 -15 48 -70 62
-105 27z"/>
<path d="M10172 5094 c-12 -8 -22 -24 -22 -35 0 -17 7 -19 65 -19 36 0 65 3
65 6 0 11 -23 49 -34 56 -18 12 -50 9 -74 -8z"/>
<path d="M10500 5005 c-7 -8 -10 -25 -6 -40 5 -21 12 -25 41 -25 36 0 65 28
65 62 0 15 -8 18 -44 18 -26 0 -48 -6 -56 -15z"/>
<path d="M11550 5090 c-38 -38 -27 -50 45 -50 51 0 65 3 65 15 0 23 -37 55
-65 55 -14 0 -34 -9 -45 -20z"/>
<path d="M11776 5004 c-31 -30 -12 -64 35 -64 34 0 59 24 59 56 0 21 -4 24
-39 24 -23 0 -46 -7 -55 -16z"/>
<path d="M12738 5093 c-49 -57 -10 -168 52 -148 35 11 50 35 50 81 0 71 -63
112 -102 67z"/>
</g>
</svg>
